<svg xmlns="http://www.w3.org/2000/svg" xmlns:xlink="http://www.w3.org/1999/xlink" viewBox="0 0 419 817.8"><defs><style>.a{fill:#e2ecf1;}.b,.e{fill:#fff;}.c,.g,.h,.i,.j,.k,.l,.m,.o,.p{fill:none;stroke-miterlimit:10;}.c,.j,.k,.l,.m{stroke:#a2b0b9;}.d{fill:#a2b0b9;}.e,.w,.y{font-size:7px;font-family:Arial-BoldMT, Arial;font-weight:700;}.f{fill:url(#a);}.g,.h,.i,.o,.p{stroke:#ccd6dc;stroke-width:1.05px;}.h{stroke-dasharray:2.34 2.34;}.i{stroke-dasharray:2.34 2.34;}.j{stroke-width:1.07px;}.k{stroke-width:1.05px;}.l,.m{stroke-width:1.23px;}.m{stroke-dasharray:2.38 2.38;}.n{fill:url(#b);}.o{stroke-dasharray:2.34 2.34;}.p{stroke-dasharray:2.34 2.34;}.q{fill:#3777bc;}.r{letter-spacing:-0.02em;}.s{letter-spacing:-0.04em;}.t{letter-spacing:-0.02em;}.u{fill:#00a651;}.v{letter-spacing:-0.02em;}.w,.y{fill:#687278;}.w{letter-spacing:-0.06em;}.x{letter-spacing:0em;}.z{letter-spacing:-0.04em;}.aa{fill:#ed1c24;}</style><linearGradient id="a" x1="167.69" y1="763.68" x2="421.41" y2="509.96" gradientUnits="userSpaceOnUse"><stop offset="0" stop-color="#fff"/><stop offset="0.39" stop-color="#fefcfc"/><stop offset="0.7" stop-color="#f9f4f2"/><stop offset="0.99" stop-color="#f1e5e0"/><stop offset="1" stop-color="#f1e5e0"/></linearGradient><linearGradient id="b" x1="46.99" y1="454.65" x2="373.53" y2="128.1" xlink:href="#a"/></defs><title>Device Discovery and Enumeration2</title><path class="a" d="M415.6,750.2H154.7V560.4A28.4,28.4,0,0,1,183.1,532H444V721.8A28.3,28.3,0,0,1,415.6,750.2Z" transform="translate(-25 -19.4)"/><path class="a" d="M366.1,437.2H34.1a4.6,4.6,0,0,1-4.6-4.6v-246a33,33,0,0,1,33-33H394.4a4.6,4.6,0,0,1,4.6,4.6V404.2A32.9,32.9,0,0,1,366.1,437.2Z" transform="translate(-25 -19.4)"/><line class="b" x1="64.4" y1="771.2" x2="64.4" y2="795.8"/><line class="c" x1="64.4" y1="771.2" x2="64.4" y2="790.8"/><polygon class="d" points="61 789.7 64.4 795.8 67.9 789.7 61 789.7"/><ellipse class="d" cx="64.4" cy="807.7" rx="36.4" ry="10.1"/><text class="e" transform="translate(48.2 810.8)">Complete</text><line class="b" x1="64.4" y1="701.1" x2="64.4" y2="736.3"/><line class="c" x1="64.4" y1="701.1" x2="64.4" y2="731.2"/><polygon class="d" points="61 730.2 64.4 736.3 67.9 730.2 61 730.2"/><path class="f" d="M410.8,745.9H149.9V556.1a28.4,28.4,0,0,1,28.4-28.4H439.2V717.6A28.3,28.3,0,0,1,410.8,745.9Z" transform="translate(-25 -19.4)"/><polyline class="g" points="126.1 726.5 124.9 726.5 124.9 725.4"/><path class="h" d="M149.9,742.4V556.1a28.4,28.4,0,0,1,28.4-28.4H436.8" transform="translate(-25 -19.4)"/><polyline class="g" points="413 508.3 414.2 508.3 414.2 509.5"/><path class="i" d="M439.2,531.2V717.6a28.3,28.3,0,0,1-28.3,28.3H152.3" transform="translate(-25 -19.4)"/><line class="b" x1="156.7" y1="696.5" x2="102.6" y2="696.5"/><line class="j" x1="156.7" y1="696.5" x2="108" y2="696.5"/><polygon class="d" points="109.1 692.8 102.6 696.5 109.1 700.3 109.1 692.8"/><line class="b" x1="281.4" y1="697.8" x2="229.6" y2="697.8"/><line class="k" x1="281.4" y1="697.8" x2="234.8" y2="697.8"/><polygon class="d" points="235.9 694.1 229.6 697.8 235.9 701.4 235.9 694.1"/><line class="b" x1="220.2" y1="555" x2="274.4" y2="555"/><line class="j" x1="220.2" y1="555" x2="269" y2="555"/><polygon class="d" points="267.9 558.7 274.4 555 267.9 551.2 267.9 558.7"/><line class="b" x1="312.2" y1="562.9" x2="312.2" y2="595.3"/><line class="k" x1="312.2" y1="562.9" x2="312.2" y2="590"/><polygon class="d" points="308.5 588.9 312.2 595.3 315.9 588.9 308.5 588.9"/><line class="b" x1="312.2" y1="629.8" x2="312.2" y2="673.9"/><line class="l" x1="312.2" y1="629.8" x2="312.2" y2="630.9"/><line class="m" x1="312.2" y1="633.3" x2="312.2" y2="665.4"/><line class="l" x1="312.2" y1="666.6" x2="312.2" y2="667.8"/><polygon class="d" points="307.9 666.5 312.2 673.9 316.5 666.5 307.9 666.5"/><path class="n" d="M366.7,433.2H25.5V178a28.4,28.4,0,0,1,28.4-28.4H395V404.8A28.3,28.3,0,0,1,366.7,433.2Z" transform="translate(-25 -19.4)"/><polyline class="g" points="1.7 413.8 0.5 413.8 0.5 412.6"/><path class="o" d="M25.5,429.7V178a28.4,28.4,0,0,1,28.4-28.4H392.7" transform="translate(-25 -19.4)"/><polyline class="g" points="368.9 130.2 370 130.2 370 131.4"/><path class="p" d="M395,153.1V404.8a28.3,28.3,0,0,1-28.3,28.3H27.8" transform="translate(-25 -19.4)"/><path class="c" d="M222,472.6h15.3a12.5,12.5,0,0,1,12.5,12.5v14.7a12.5,12.5,0,0,1-12.5,12.5H102.9" transform="translate(-25 -19.4)"/><polygon class="d" points="79 489.1 72.5 492.9 79 496.6 79 489.1"/><line class="b" x1="302.6" y1="308.1" x2="337.8" y2="308.1"/><line class="c" x1="302.6" y1="308.1" x2="332.8" y2="308.1"/><polygon class="d" points="331.7 311.6 337.8 308.1 331.7 304.6 331.7 311.6"/><line class="b" x1="64.4" y1="389.7" x2="64.4" y2="424.9"/><line class="c" x1="64.4" y1="389.7" x2="64.4" y2="419.8"/><polygon class="d" points="61 418.8 64.4 424.9 67.9 418.8 61 418.8"/><line class="b" x1="202.6" y1="227.7" x2="237.8" y2="227.7"/><line class="c" x1="202.6" y1="227.7" x2="232.8" y2="227.7"/><polygon class="d" points="231.7 231.2 237.8 227.7 231.7 224.3 231.7 231.2"/><ellipse class="d" cx="64.4" cy="10.1" rx="36.4" ry="10.1"/><text class="e" transform="translate(54.2 12.6)">Begin</text><line class="b" x1="64.4" y1="20.3" x2="64.4" y2="34.2"/><line class="c" x1="64.4" y1="20.3" x2="64.4" y2="29.2"/><polygon class="d" points="61 28.2 64.4 34.2 67.9 28.2 61 28.2"/><line class="b" x1="64.4" y1="67.9" x2="64.4" y2="81.9"/><line class="c" x1="64.4" y1="67.9" x2="64.4" y2="76.9"/><polygon class="d" points="61 75.9 64.4 81.9 67.9 75.9 61 75.9"/><line class="b" x1="64.4" y1="115.4" x2="64.4" y2="145.8"/><line class="c" x1="64.4" y1="115.4" x2="64.4" y2="140.8"/><polygon class="d" points="61 139.7 64.4 145.8 67.9 139.7 61 139.7"/><line class="b" x1="64.4" y1="164.6" x2="64.4" y2="199.8"/><line class="c" x1="64.4" y1="164.6" x2="64.4" y2="194.8"/><polygon class="d" points="61 193.7 64.4 199.8 67.9 193.7 61 193.7"/><line class="b" x1="64.4" y1="244.9" x2="64.4" y2="280.1"/><line class="c" x1="64.4" y1="244.9" x2="64.4" y2="275.1"/><polygon class="d" points="61 274.1 64.4 280.1 67.9 274.1 61 274.1"/><line class="b" x1="64.4" y1="324.1" x2="64.4" y2="359.3"/><line class="c" x1="64.4" y1="324.1" x2="64.4" y2="354.2"/><polygon class="d" points="61 353.2 64.4 359.3 67.9 353.2 61 353.2"/><rect class="q" x="24.9" y="34.6" width="79.2" height="33.54"/><text class="e" transform="translate(33.9 49.1)">Link Negotiations:<tspan x="-3.3" y="8.4">Scan for active links</tspan></text><rect class="q" x="24.9" y="81.9" width="79.2" height="33.54"/><text class="e" transform="translate(32.7 96.4)">Auto-negotiate link<tspan x="21.6" y="8.4">speed</tspan></text><rect class="q" x="28.3" y="145.8" width="72.3" height="33.54"/><text class="e" transform="translate(37.3 164.7)">I<tspan class="r" x="1.9" y="0">P</tspan><tspan x="6.5" y="0" xml:space="preserve"> Configuration</tspan></text><rect class="q" x="28.3" y="360.5" width="72.3" height="33.54"/><text class="e" transform="translate(50.4 379.5)">Use LL<tspan class="s" x="23.3" y="0">A</tspan></text><line class="b" x1="64.4" y1="479.8" x2="64.4" y2="536.9"/><line class="c" x1="64.4" y1="479.8" x2="64.4" y2="531.9"/><polygon class="d" points="61 530.9 64.4 536.9 67.9 530.9 61 530.9"/><rect class="q" x="28.3" y="538.2" width="72.3" height="33.54"/><text class="e" transform="translate(31.2 557.1)">Device enumeration</text><rect class="q" x="28.3" y="679.7" width="72.3" height="33.54"/><text class="e" transform="translate(45.4 690.3)">Application<tspan x="3.7" y="8.4">connects</tspan><tspan x="3.9" y="16.8">to device</tspan></text><rect class="q" x="28.3" y="738.7" width="72.3" height="33.54"/><text class="e" transform="translate(34 757.7)">Loads device XM<tspan class="t" x="56.8" y="0">L</tspan></text><rect class="q" x="147.6" y="538.2" width="77.1" height="33.54"/><text class="e" transform="translate(166.2 548.3)">Application<tspan x="0.4" y="8.4">broadcasts</tspan><tspan x="-13.2" y="16.8">discovery message</tspan></text><rect class="q" x="277.1" y="538.2" width="72.3" height="33.54"/><text class="e" transform="translate(287 552.7)">Device receives<tspan x="-6" y="8.4">discovery message</tspan></text><rect class="q" x="277.1" y="599.7" width="72.3" height="33.54"/><text class="e" transform="translate(283.1 610.2)">Device assembles<tspan x="13.8" y="8.4">discovery</tspan><tspan x="8.2" y="16.8">acknowledge</tspan></text><rect class="q" x="277.1" y="679.5" width="72.3" height="33.54"/><text class="e" transform="translate(288.8 689.6)">Device unicast<tspan x="10.1" y="8.4">discover</tspan><tspan x="2.5" y="16.8">acknowledge</tspan></text><rect class="q" x="143.1" y="679.5" width="84.3" height="33.54"/><text class="e" transform="translate(151.2 689.6)">Application receives<tspan x="-5.3" y="8.4">discovery acknowledge</tspan><tspan x="14.4" y="16.8">from device</tspan></text><polygon class="u" points="64.4 255.7 31.2 227.7 64.4 199.8 97.7 227.7 64.4 255.7"/><polygon class="u" points="64.4 255.7 31.2 227.7 64.4 199.8 97.7 227.7 64.4 255.7"/><text class="e" transform="translate(43.1 226.4)">Persistent I<tspan class="r" x="37.7" y="0">P</tspan><tspan x="0.9" y="8.4">configured?</tspan></text><polygon class="u" points="64.4 336 31.2 308 64.4 280.1 97.7 308 64.4 336"/><polygon class="u" points="64.4 336 31.2 308 64.4 280.1 97.7 308 64.4 336"/><text class="e" transform="translate(54.4 305.3)">DHC<tspan class="r" x="15.2" y="0">P</tspan><tspan x="-10.4" y="8.4">configured?</tspan></text><polygon class="u" points="64.4 480.8 31.2 452.8 64.4 424.9 97.7 452.8 64.4 480.8"/><polygon class="u" points="64.4 480.8 31.2 452.8 64.4 424.9 97.7 452.8 64.4 480.8"/><text class="e" transform="translate(44.6 454.6)">FORCE_IP?</text><rect class="q" x="132.4" y="210.5" width="72.3" height="33.54"/><text class="e" transform="translate(140.2 229.6)">Use persistent I<tspan class="v" x="52.1" y="0">P</tspan></text><line class="b" x1="96.1" y1="227.7" x2="131.3" y2="227.7"/><line class="c" x1="96.1" y1="227.7" x2="126.3" y2="227.7"/><polygon class="d" points="125.2 231.2 131.3 227.7 125.2 224.3 125.2 231.2"/><path class="c" d="M297,273v7.3c0,4-2,5.5-5.5,5.5H102.4" transform="translate(-25 -19.4)"/><polygon class="d" points="78.4 263 72.4 266.5 78.4 269.9 78.4 263"/><polygon class="u" points="272.2 255.7 238.9 227.7 272.2 199.8 305.4 227.7 272.2 255.7"/><polygon class="u" points="272.2 255.7 238.9 227.7 272.2 199.8 305.4 227.7 272.2 255.7"/><text class="e" transform="translate(250.5 230.4)">I<tspan class="r" x="1.9" y="0">P</tspan><tspan x="6.5" y="0" xml:space="preserve"> assigned?</tspan></text><line class="b" x1="202.6" y1="308.1" x2="237.8" y2="308.1"/><line class="c" x1="202.6" y1="308.1" x2="232.8" y2="308.1"/><polygon class="d" points="231.7 311.6 237.8 308.1 231.7 304.6 231.7 311.6"/><rect class="q" x="132.4" y="290.9" width="72.3" height="33.54"/><text class="e" transform="translate(149 309.9)"><tspan xml:space="preserve"> Use DHC</tspan><tspan class="v" x="31.9" y="0">P</tspan></text><line class="b" x1="96.1" y1="308.1" x2="131.3" y2="308.1"/><line class="c" x1="96.1" y1="308.1" x2="126.3" y2="308.1"/><polygon class="d" points="125.2 311.6 131.3 308.1 125.2 304.6 125.2 311.6"/><path class="c" d="M297,353.3v7.3c0,4-2,5.5-5.5,5.5H102.4" transform="translate(-25 -19.4)"/><polygon class="d" points="78.4 343.3 72.4 346.8 78.4 350.3 78.4 343.3"/><polygon class="u" points="272.2 336 238.9 308.1 272.2 280.1 305.4 308.1 272.2 336"/><polygon class="u" points="272.2 336 238.9 308.1 272.2 280.1 305.4 308.1 272.2 336"/><text class="e" transform="translate(250.5 310.7)">I<tspan class="r" x="1.9" y="0">P</tspan><tspan x="6.5" y="0" xml:space="preserve"> assigned?</tspan></text><text class="w" transform="translate(106.4 223)">Y<tspan class="x" x="4.3" y="0">es</tspan></text><text class="w" transform="translate(106.4 302.3)">Y<tspan class="x" x="4.3" y="0">es</tspan></text><rect class="q" x="132.4" y="436.1" width="72.3" height="33.54"/><text class="e" transform="translate(157.5 450.7)"><tspan xml:space="preserve"> User </tspan><tspan x="-16.3" y="8.4">forced static_I</tspan><tspan class="v" x="31.2" y="8.4">P</tspan></text><line class="b" x1="96.1" y1="453.3" x2="131.3" y2="453.3"/><line class="c" x1="96.1" y1="453.3" x2="126.3" y2="453.3"/><polygon class="d" points="125.2 456.8 131.3 453.3 125.2 449.8 125.2 456.8"/><line class="b" x1="100.5" y1="555" x2="147.4" y2="555"/><line class="c" x1="100.5" y1="555" x2="142.4" y2="555"/><polygon class="d" points="141.4 558.5 147.4 555 141.4 551.5 141.4 558.5"/><text class="w" transform="translate(106.4 447.5)">Y<tspan class="x" x="4.3" y="0">es</tspan></text><text class="y" transform="translate(73.2 260)">No</text><text class="y" transform="translate(73.2 338.7)">No</text><text class="y" transform="translate(73.2 486)">No</text><text class="w" transform="translate(314.2 220.8)">Y<tspan class="x" x="4.3" y="0">es</tspan></text><text class="w" transform="translate(314.2 302.3)">Y<tspan class="x" x="4.3" y="0">es</tspan></text><path class="c" d="M328.9,247.1h21.8c8.3,0,15.6,4.4,15.6,15.6V401.5c0,12.8-8.3,20.8-21.1,20.8h-243" transform="translate(-25 -19.4)"/><polygon class="d" points="78.3 399.1 71.8 402.9 78.3 406.6 78.3 399.1"/><text class="y" transform="translate(334.2 647.1)"><tspan class="z">W</tspan><tspan x="6.3" y="0">ait for duration</tspan><tspan x="8.6" y="8.4">specified in</tspan><tspan x="-6.2" y="16.8">discovery_ack delay</tspan></text><rect class="u" x="147.6" y="528.3" width="77.1" height="9.5"/><text class="e" transform="translate(166.2 535.1)">Application</text><rect class="aa" x="277.1" y="528.3" width="72.3" height="9.5"/><rect class="aa" x="277.1" y="596.3" width="72.3" height="2.74"/><rect class="aa" x="277.1" y="675.7" width="72.3" height="2.74"/><rect class="u" x="143.1" y="675.7" width="84.3" height="2.74"/><text class="e" transform="translate(302 535.1)">Device</text></svg>